PathFileType	4	(X/Y/Z)	G:\マイドライブ\biomec\experimentalData\240725\SJ3.trc
DataRate	CameraRate	NumFrames	NumMarkers	Units	OrigDataRate	OrigDataStartFrame	OrigNumFrames
200.00	200.00	      6	52	mm	200.00	1006	      1608
Frame#	Time	handR			wrRI			wrRO			elbRI			elbRO			shRF			shRU			shRB			handL			wrLI			wrLO			elbLI			elbLO			shLF			shLU			shLB			toeR			baRI			baRO			heelR			anRI			anRO			knRI			knRO			troR			toeL			baLI			baLO			heelL			anLI			anLO			knLI			knLO			troL			head			earR			earL			clav			c7			ribR			ribL			xiph			ASISR			ASISL			PSISR			PSISL			t8			t11			L1			L3			LS			COX			
		X1	Y1	Z1	X2	Y2	Z2	X3	Y3	Z3	X4	Y4	Z4	X5	Y5	Z5	X6	Y6	Z6	X7	Y7	Z7	X8	Y8	Z8	X9	Y9	Z9	X10	Y10	Z10	X11	Y11	Z11	X12	Y12	Z12	X13	Y13	Z13	X14	Y14	Z14	X15	Y15	Z15	X16	Y16	Z16	X17	Y17	Z17	X18	Y18	Z18	X19	Y19	Z19	X20	Y20	Z20	X21	Y21	Z21	X22	Y22	Z22	X23	Y23	Z23	X24	Y24	Z24	X25	Y25	Z25	X26	Y26	Z26	X27	Y27	Z27	X28	Y28	Z28	X29	Y29	Z29	X30	Y30	Z30	X31	Y31	Z31	X32	Y32	Z32	X33	Y33	Z33	X34	Y34	Z34	X35	Y35	Z35	X36	Y36	Z36	X37	Y37	Z37	X38	Y38	Z38	X39	Y39	Z39	X40	Y40	Z40	X41	Y41	Z41	X42	Y42	Z42	X43	Y43	Z43	X44	Y44	Z44	X45	Y45	Z45	X46	Y46	Z46	X47	Y47	Z47	X48	Y48	Z48	X49	Y49	Z49	X50	Y50	Z50	X51	Y51	Z51	X52	Y52	Z52	

1006	5.025	546.19702	814.76996	812.42004	504.72263	752.01953	797.78882	479.07538	789.22632	855.25079	466.92319	644.58435	1018.75970	519.68469	591.40106	989.52277	757.14764	775.08447	1089.81604	667.78851	740.74493	1149.28589	732.23462	739.14313	1143.52649	560.23743	1092.60242	816.36713	521.03485	1165.82385	812.59521	503.84583	1118.35059	869.60889	506.79086	1258.44592	1035.36633	565.55859	1307.26855	1002.08490	772.67316	1087.86316	1100.36975	671.78558	1116.10901	1156.17786	752.15173	1124.90454	1156.35413	664.78534	742.55719	41.89932	588.74713	801.58911	32.26344	549.32349	681.49341	44.00845	383.34906	795.78625	49.42653	490.99911	827.31769	112.01318	457.87476	734.91687	113.52129	696.10052	835.58923	403.56601	698.04022	720.18756	408.93726	451.74457	774.98285	708.53973	678.73370	1090.20911	40.42474	615.20825	1033.49780	50.12942	570.81226	1141.88647	44.35913	396.64771	1048.29626	57.21757	515.58783	1020.97516	135.44316	479.81735	1108.80823	115.04351	717.16168	1032.63733	422.16025	707.93365	1154.29456	417.89178	464.52863	1133.18445	711.37225	750.99023	930.97968	1405.17554	822.59143	845.99866	1249.86975	831.12012	1006.07886	1249.79041	780.87775	935.12415	1074.13623	704.98206	937.54797	1206.91638	577.98657	846.45026	842.88428	580.46826	1057.63599	847.58252	719.77740	943.16162	920.38397	516.28717	849.59509	735.65259	523.06787	1069.57532	751.82123	370.79810	900.07294	834.91473	378.64868	1021.81299	840.57294	538.38892	949.47839	1071.08398	470.40756	957.57739	965.09406	438.86377	962.42291	914.68158	405.21408	961.52362	872.73737	362.72388	962.69507	835.66199	305.42325	965.68207	722.09875	
1007	5.030	544.30115	814.66602	802.06305	503.05988	752.16156	787.53418	477.78360	789.02014	845.45068	465.87845	643.11823	1010.14038	520.83923	590.91205	978.48163	757.95081	776.34125	1075.45032	670.39276	740.47211	1136.76599	734.74451	739.30377	1129.14307	557.91882	1092.82019	805.30878	518.38757	1165.75012	801.64954	502.01086	1118.46118	859.14923	507.72375	1259.48340	1024.25098	565.71252	1307.98694	989.77686	774.13318	1088.42810	1084.74731	674.34192	1117.02942	1142.53259	755.58636	1124.88440	1140.55078	665.07385	742.27039	41.40280	589.35083	801.95740	32.06911	549.23444	681.92212	44.28399	382.94583	797.11664	50.19627	492.25519	828.81256	112.07769	458.65036	736.72577	113.82381	699.89429	834.34601	403.16431	699.94116	718.24384	407.52197	448.98099	774.75073	703.14264	678.79547	1090.19531	40.36453	615.25854	1033.50037	50.09113	570.82446	1141.93823	44.34098	396.71344	1048.29773	57.59327	516.32233	1020.90454	135.47148	479.43042	1108.85901	116.18457	718.12689	1032.23206	418.98715	710.27234	1154.33569	415.84338	462.80115	1132.99548	703.91052	752.12689	930.91150	1389.09180	825.27631	846.44305	1234.84131	833.54205	1006.33038	1235.19824	782.15265	935.56848	1059.17297	707.82715	938.34283	1193.42188	574.77692	846.08569	831.82983	578.61646	1057.84521	835.81128	718.63605	942.95435	906.53485	513.63599	849.09100	726.65338	520.74402	1069.09399	741.10889	368.19629	900.19647	826.08008	376.81165	1022.08661	831.42792	538.67969	950.09155	1061.23413	469.79694	957.86310	955.23035	437.66476	962.65857	905.25806	403.57144	961.46960	863.40350	360.63391	963.02679	826.68921	301.53479	966.96149	714.07220	
1008	5.035	541.97382	817.22717	791.21100	501.49045	751.99908	777.78674	475.95038	788.42847	836.71948	466.81100	642.22015	1000.22223	522.04602	590.36450	967.83691	759.01587	777.25781	1061.39258	672.94995	740.29932	1124.42334	736.91016	739.63965	1115.46423	555.44916	1093.06946	794.42493	514.62732	1165.47119	790.93469	500.35599	1118.65869	849.01385	508.45758	1260.14587	1013.62500	566.11548	1308.75317	978.10419	774.58533	1087.46277	1068.26733	676.72095	1117.93237	1129.38525	757.97736	1125.72498	1125.71191	665.28912	742.04242	40.98605	589.76398	802.08740	31.77272	549.13770	682.20776	44.39110	382.86758	798.24005	50.26397	493.14923	829.56580	111.31554	459.06638	737.56122	113.57829	702.95917	832.78027	401.75903	700.77386	716.08105	405.75354	445.91702	774.74976	697.66620	678.79242	1090.14001	40.32380	615.26398	1033.47656	49.96645	570.80420	1141.83069	44.30383	396.70435	1048.06409	57.44095	516.64032	1020.68054	135.04150	479.24942	1108.56812	116.62480	719.26892	1031.81616	415.94272	712.85846	1154.41541	413.58038	461.56445	1132.60620	695.73468	753.71936	930.92108	1373.44360	827.76941	846.83600	1220.78357	836.28571	1006.33807	1221.27893	783.07965	935.54028	1044.75745	710.53918	938.84882	1180.42737	572.26807	845.69647	821.27808	577.17908	1057.99829	824.40344	717.10712	942.90173	893.14716	511.45285	848.94904	717.41449	518.23444	1068.82581	730.96289	366.66681	900.37067	817.56543	375.21155	1022.30786	822.61072	540.14734	950.64313	1050.59314	469.50339	958.13391	945.60913	437.46829	963.03070	895.54193	402.17432	961.38751	854.54846	359.04971	963.27094	817.71912	297.96262	967.51654	706.17102	
1009	5.040	540.40875	817.43994	781.39191	500.56775	751.66626	768.68829	475.26190	787.83008	827.51263	467.67621	641.28644	990.65527	522.73975	589.75385	957.92169	759.96173	777.70959	1048.31372	675.13507	740.73676	1112.61072	738.91589	740.08655	1102.42200	553.54724	1093.73022	783.82349	513.71411	1166.15283	781.05920	499.04318	1119.11084	839.38074	508.58023	1260.79773	1003.88922	566.48193	1309.61401	966.84570	775.68970	1087.76941	1053.98462	679.08899	1118.96289	1116.58948	760.30823	1126.67285	1111.45862	665.32977	741.90125	40.79757	589.97437	802.19019	31.41327	548.96210	682.40460	44.43010	383.62619	799.43341	48.99728	493.44144	830.34619	110.23965	459.10150	738.40979	112.64389	705.41858	830.96997	399.52341	701.33905	714.22443	403.77771	443.35007	774.41974	691.50995	678.69727	1090.09033	40.34716	615.19757	1033.35400	49.83133	570.69360	1141.75940	44.28888	396.60983	1047.78247	56.50230	516.61145	1020.25989	134.09119	479.12195	1108.11646	116.19944	720.21826	1031.25867	412.80652	715.01978	1154.07092	411.26291	460.03595	1132.30347	687.40021	755.77466	930.95007	1358.55762	830.46893	847.12030	1207.43433	838.89685	1007.02136	1207.86646	783.85791	935.96606	1030.93420	712.92401	939.41107	1167.64233	569.84924	846.64679	811.32349	575.23743	1058.20850	814.05042	716.16980	942.82953	880.43079	508.69189	848.39661	708.76074	515.34613	1067.37598	720.89355	364.91476	900.51129	809.71564	373.56836	1022.07269	813.84314	541.07690	951.29529	1040.28918	469.17514	958.42810	936.26965	436.52805	963.13715	886.54315	400.73810	961.36755	845.73621	357.26938	963.14838	808.86951	295.10489	967.11816	697.99036	
1010	5.045	539.04413	817.21613	771.91089	499.33920	751.21606	759.26666	474.26093	787.81427	818.39478	468.73083	640.83380	981.72107	523.43799	589.35779	948.32483	760.91925	778.13013	1035.53259	676.70972	741.47333	1101.29089	740.46185	740.62317	1090.41223	551.34210	1093.77197	773.48364	510.65878	1165.87915	771.15649	497.66281	1119.35437	829.85059	509.31183	1261.62878	993.86383	566.78552	1310.21558	956.07513	777.03015	1088.39514	1040.46082	681.26306	1119.85730	1104.29834	762.66418	1127.45740	1097.59863	665.13599	741.87494	40.83123	589.97833	802.24951	31.14604	548.76215	682.46204	44.32857	383.57281	799.97827	47.73520	493.12509	830.93365	109.39185	459.02173	739.15601	111.80241	706.97559	829.25323	395.99124	701.58453	712.54059	401.34677	440.76328	774.06842	685.33807	678.50061	1090.01440	40.46886	615.02032	1033.15161	49.67570	570.56024	1141.59668	44.20790	396.14993	1047.46667	54.70297	516.41620	1019.86798	132.88841	478.64581	1107.61389	114.93417	720.89600	1030.70313	409.28552	716.89954	1153.52356	408.67624	458.27020	1132.32983	678.97424	758.41565	931.03839	1344.72217	832.95410	847.47949	1194.50439	841.74170	1007.50458	1195.01099	784.78247	936.33875	1017.92053	715.18945	940.18951	1155.38452	568.75690	846.61945	800.94482	573.70947	1058.46484	803.86169	715.32898	942.89508	868.17896	506.50397	848.24548	699.69043	513.08820	1066.96423	711.03223	363.50201	900.60101	801.71539	371.96793	1022.01227	805.31128	541.80597	952.18933	1030.62769	468.92868	958.81091	927.23706	435.59152	963.11810	877.82721	399.41864	961.16687	837.25873	355.44730	963.02368	800.69843	293.22729	966.38306	689.73804	
1011	5.050	538.00366	817.10773	762.84180	498.24124	750.82581	750.36810	473.89197	787.00104	809.85968	469.50641	640.54810	973.20270	524.24371	589.24963	939.34082	762.42981	778.13702	1023.75067	678.13049	742.56445	1090.47644	741.78278	741.26855	1078.88892	549.41290	1093.62769	763.53607	509.30804	1166.46106	761.97949	496.44846	1119.55762	820.78973	510.37903	1262.38953	984.00226	567.10413	1310.82751	945.60486	777.77234	1088.80981	1027.13147	683.25189	1120.71887	1092.57434	764.25891	1128.23682	1084.76782	664.75403	741.90924	41.07122	589.78668	802.26227	31.06889	548.50214	682.23511	44.09909	382.54535	799.43597	47.01055	492.87006	830.98956	108.69267	457.77353	739.32007	110.52586	707.62787	827.44763	392.42511	701.77826	710.72809	398.62781	438.76575	773.51105	678.58173	678.29309	1089.94812	40.64644	614.81299	1032.87366	49.54282	570.33929	1141.47437	44.20691	395.80591	1047.29590	53.32797	515.96783	1019.28082	131.37204	478.13742	1107.10266	113.51201	721.45209	1029.99182	405.59430	718.20764	1152.37854	405.38120	456.14905	1132.13220	670.72858	761.56580	931.48511	1332.11145	835.45355	847.92242	1181.82483	844.40912	1007.97198	1182.49902	785.66711	936.89581	1005.46619	717.69000	940.92688	1143.19580	568.31006	846.78217	790.76379	572.38452	1058.67444	793.77142	714.34363	943.14130	856.49725	504.53305	847.79474	691.44849	510.82101	1066.69434	701.88452	361.98364	900.57001	794.13116	370.18246	1021.99475	796.96863	543.36011	952.86261	1020.37079	468.67917	959.03668	918.41193	434.70450	963.14471	869.38074	398.13220	960.95074	828.99139	353.92542	962.91010	792.74200	291.65186	965.36334	681.89844	
